<svg aria-hidden="true" style="position: absolute; width: 0; height: 0; overflow: hidden;" version="1.1" xmlns="http://www.w3.org/2000/svg" xmlns:xlink="http://www.w3.org/1999/xlink">
<defs>
<symbol id="icon-cart" viewBox="0 0 32 32">
<path fill="#7e7e7e" style="fill: var(--color1, #7e7e7e)" d="M6.607 28.632c0 1.821 1.482 3.304 3.304 3.304s3.304-1.482 3.304-3.304c0-1.821-1.482-3.304-3.304-3.304s-3.304 1.482-3.304 3.304zM11.012 28.632c0 0.607-0.494 1.101-1.101 1.101s-1.101-0.495-1.101-1.101c0-0.607 0.494-1.101 1.101-1.101s1.101 0.494 1.101 1.101z"></path>
<path fill="#7e7e7e" style="fill: var(--color1, #7e7e7e)" d="M26.429 28.632c0-1.821-1.482-3.304-3.304-3.304s-3.304 1.482-3.304 3.304c0 1.821 1.482 3.304 3.304 3.304s3.304-1.482 3.304-3.304zM22.024 28.632c0-0.607 0.494-1.101 1.101-1.101s1.101 0.494 1.101 1.101c0 0.607-0.494 1.101-1.101 1.101s-1.101-0.495-1.101-1.101z"></path>
<path fill="#7e7e7e" style="fill: var(--color1, #7e7e7e)" d="M3.414 2.202c0.137 1.3 1.656 15.735 1.891 17.965 0.177 1.686 1.59 2.958 3.286 2.958h17.16c1.547 0 2.906-1.099 3.231-2.612l2.645-12.343c0.14-0.654-0.021-1.327-0.442-1.846-0.421-0.52-1.045-0.818-1.713-0.818h-23.495l-0.476-4.519c-0.059-0.562-0.532-0.987-1.096-0.987h-3.304c-0.608 0-1.101 0.493-1.101 1.101s0.493 1.101 1.101 1.101h2.313zM29.471 7.708l-2.644 12.343c-0.109 0.504-0.562 0.871-1.078 0.871h-17.159c-0.566 0-1.036-0.424-1.096-0.986l-1.287-12.229h23.264z"></path>
</symbol>
<symbol id="icon-chevron-right" viewBox="0 0 19 32">
<path fill="#fff" style="fill: var(--color2, #fff)" d="M2.196 31.999c-0.428 0.010-0.848-0.127-1.202-0.393s-0.625-0.647-0.774-1.090-0.169-0.927-0.058-1.384c0.111-0.457 0.348-0.864 0.679-1.165l12.603-11.931-12.603-11.927c-0.229-0.186-0.42-0.421-0.562-0.692s-0.232-0.572-0.265-0.883c-0.032-0.311-0.006-0.627 0.077-0.926s0.221-0.577 0.406-0.815c0.185-0.238 0.412-0.431 0.667-0.567s0.533-0.213 0.817-0.225c0.283-0.012 0.566 0.040 0.83 0.155s0.504 0.287 0.705 0.509l14.429 13.643c0.227 0.214 0.409 0.479 0.533 0.778s0.189 0.624 0.189 0.953c0 0.329-0.065 0.655-0.189 0.953s-0.307 0.564-0.533 0.778l-14.429 13.656c-0.365 0.358-0.832 0.561-1.319 0.573z"></path>
</symbol>
<symbol id="icon-clock" viewBox="0 0 32 32">
<path fill="#676767" style="fill: var(--color3, #676767)" d="M16 32c8.821 0 16-7.179 16-16s-7.179-16-16-16c-8.821 0-16 7.179-16 16s7.179 16 16 16zM16 2.133c7.648 0 13.867 6.219 13.867 13.867s-6.219 13.867-13.867 13.867c-7.648 0-13.867-6.219-13.867-13.867s6.219-13.867 13.867-13.867z"></path>
<path fill="#676767" style="fill: var(--color3, #676767)" d="M20.667 21.099c0.197 0.16 0.432 0.235 0.667 0.235 0.315 0 0.624-0.139 0.832-0.4 0.368-0.459 0.293-1.131-0.165-1.499l-4.933-3.947v-8.021c0-0.587-0.48-1.067-1.067-1.067s-1.067 0.48-1.067 1.067v8.533c0 0.325 0.149 0.629 0.4 0.832l5.333 4.267z"></path>
</symbol>
<symbol id="icon-comodo" viewBox="0 0 58 32">
<path fill="#7cb928" style="fill: var(--color4, #7cb928)" d="M18.98 11.306h30.31c4.462 0 8.089 3.615 8.089 8.089 0 4.462-3.615 8.090-8.089 8.090h-30.31c-4.462 0-8.089-3.615-8.089-8.090 0-4.462 3.628-8.089 8.089-8.089z"></path>
<path fill="#fff" style="fill: var(--color2, #fff)" d="M19.586 17.578h29.097c2.237 0 4.045 1.807 4.045 4.045s-1.808 4.045-4.045 4.045h-29.097v-8.089z"></path>
<path fill="none" stroke="#e4efed" style="stroke: var(--color5, #e4efed)" stroke-linejoin="miter" stroke-linecap="butt" stroke-miterlimit="4" stroke-width="3.2333" d="M19.397 14.796v-5.865c-0.948-4.474-3.337-6.724-7.192-6.724s-6.244 2.098-7.167 6.295v5.397"></path>
<path fill="#7cb928" style="fill: var(--color4, #7cb928); stroke: var(--color6, #f2f8f6)" stroke="#f2f8f6" stroke-linejoin="miter" stroke-linecap="butt" stroke-miterlimit="4" stroke-width="2.8292" d="M12.306 30.104c5.578 0 10.099-4.522 10.099-10.099s-4.522-10.099-10.099-10.099c-5.578 0-10.099 4.522-10.099 10.099s4.522 10.099 10.099 10.099z"></path>
<path fill="#fff" style="fill: var(--color2, #fff)" d="M7.060 18.729l0.72 4.765h1.732v-4.765h-2.452z"></path>
<path fill="#fff" style="fill: var(--color2, #fff)" d="M9.803 19.221v4.095c0.531-0.063 0.91-0.063 1.15 0 0.367 0.088 2.086 0.72 3.198 0.72s1.959-0.367 1.997-0.72c0.025-0.24-0.013-0.455-0.101-0.67 0.455-0.025 0.67-0.19 0.632-0.468s-0.126-0.468-0.278-0.544c0.48-0.43 0.682-0.771 0.645-1.011-0.051-0.24-0.177-0.442-0.367-0.619 0.506-0.948 0.417-1.466-0.278-1.555-1.024-0.139-2.629 0.177-2.97-0.164-0.341-0.329 1.175-2.92 0.114-3.463s-1.807 2.806-2.364 3.463c-0.379 0.43-0.834 0.746-1.378 0.935z"></path>
<path fill="#636362" style="fill: var(--color7, #636362)" d="M26.614 22.67h0.872c0.038 0.404 0.215 0.758 0.657 0.758 0.43 0 0.594-0.265 0.594-0.645 0-0.405-0.202-0.645-0.809-0.935-0.847-0.404-1.175-0.758-1.175-1.492 0-0.784 0.506-1.327 1.403-1.327 1.112 0 1.378 0.746 1.403 1.39h-0.859c-0.025-0.278-0.088-0.695-0.544-0.695-0.354 0-0.506 0.228-0.506 0.556 0 0.354 0.164 0.518 0.733 0.796 0.885 0.404 1.277 0.796 1.277 1.618 0 0.784-0.48 1.416-1.517 1.416-1.163 0.025-1.504-0.708-1.529-1.441zM32.808 21.090v0.758h-1.58v1.441h1.77l-0.114 0.758h-2.528v-4.929h2.528v0.771h-1.656v1.201h1.58zM35.69 22.607h0.872c-0.025 0.253-0.114 1.517-1.479 1.517-1.403 0-1.567-1.226-1.567-2.553 0-1.593 0.468-2.528 1.618-2.528 1.302 0 1.403 1.125 1.428 1.517h-0.872c-0.013-0.164-0.025-0.771-0.569-0.771-0.556 0-0.695 0.682-0.695 1.807 0 0.935 0.089 1.807 0.67 1.807 0.531 0 0.581-0.607 0.594-0.796zM37.232 19.119h0.885v3.387c0 0.405 0.101 0.885 0.645 0.885 0.518 0 0.632-0.405 0.632-0.872v-3.4h0.885v3.413c0 0.885-0.341 1.605-1.529 1.605-1.175 0-1.517-0.682-1.517-1.605v-3.413zM42.426 21.937h-0.379v2.111h-0.872v-4.929h1.504c0.897 0 1.403 0.468 1.403 1.34 0 0.708-0.392 1.024-0.645 1.125 0.379 0.177 0.556 0.506 0.556 1.226v0.202c0 0.556 0.025 0.771 0.063 1.036h-0.847c-0.076-0.228-0.076-0.619-0.076-1.036v-0.177c0-0.67-0.152-0.897-0.708-0.897zM42.047 19.826v1.403h0.417c0.531 0 0.746-0.228 0.746-0.72 0-0.43-0.202-0.683-0.657-0.683h-0.506zM47.318 21.090v0.758h-1.58v1.441h1.77l-0.114 0.758h-2.528v-4.929h2.528v0.771h-1.656v1.201h1.58z"></path>
<path fill="#fff" style="fill: var(--color2, #fff)" d="M30.419 13.533c-0.556-0.025-0.834 0.291-0.91 0.796-0.013 0.101-0.038 0.215-0.038 0.316-0.025 0.19-0.051 0.379-0.051 0.569 0.013 0.265 0.126 0.417 0.379 0.493 0.139 0.038 0.291 0.051 0.43 0.038 0.468-0.025 0.733-0.253 0.822-0.72 0.025-0.114 0.038-0.215 0.051-0.329 0.025-0.215 0.063-0.43 0.051-0.657-0.013-0.265-0.164-0.442-0.417-0.493-0.101-0.013-0.202 0-0.316-0.013zM30.735 12.927c0.164 0.025 0.341 0.038 0.506 0.088 0.177 0.051 0.341 0.139 0.493 0.253 0.253 0.202 0.367 0.48 0.367 0.796 0 0.379-0.051 0.758-0.126 1.125-0.126 0.531-0.455 0.885-0.961 1.049-0.569 0.177-1.15 0.19-1.732 0.013-0.126-0.038-0.227-0.101-0.341-0.164-0.341-0.215-0.48-0.543-0.468-0.935 0.013-0.316 0.051-0.632 0.114-0.948 0.139-0.67 0.556-1.074 1.239-1.213 0.126-0.025 0.24-0.038 0.367-0.051h0.543v-0.013z"></path>
<path fill="#fff" style="fill: var(--color2, #fff)" d="M39.469 13.533c-0.594-0.025-0.859 0.278-0.935 0.758-0.051 0.278-0.089 0.556-0.101 0.834-0.025 0.341 0.152 0.556 0.468 0.594 0.164 0.025 0.316 0.025 0.48 0.013 0.329-0.038 0.556-0.215 0.645-0.531 0.114-0.367 0.152-0.746 0.152-1.138 0-0.316-0.152-0.468-0.455-0.531-0.089 0-0.164 0.013-0.253 0zM39.785 12.927c0.139 0.025 0.278 0.038 0.404 0.076 0.202 0.051 0.392 0.126 0.556 0.253 0.227 0.164 0.366 0.392 0.379 0.67 0.025 0.493-0.025 0.986-0.19 1.466-0.139 0.417-0.442 0.683-0.847 0.822-0.581 0.202-1.175 0.215-1.757 0.038-0.594-0.164-0.872-0.569-0.834-1.188 0.013-0.303 0.051-0.607 0.114-0.897 0.139-0.683 0.581-1.049 1.239-1.175 0.126-0.025 0.253-0.038 0.379-0.051h0.556v-0.013z"></path>
<path fill="#fff" style="fill: var(--color2, #fff)" d="M47.596 15.758c0.025 0 0.038 0 0.063 0 0.493-0.013 0.758-0.227 0.86-0.72 0.025-0.101 0.038-0.202 0.051-0.316 0.025-0.24 0.076-0.468 0.051-0.708s-0.177-0.405-0.405-0.455c-0.177-0.038-0.354-0.025-0.518-0.013-0.367 0.038-0.581 0.265-0.683 0.619-0.038 0.126-0.051 0.24-0.063 0.367-0.025 0.228-0.076 0.442-0.063 0.67 0 0.303 0.139 0.468 0.43 0.531 0.063 0.013 0.177 0.025 0.278 0.025zM48.202 12.926c0.139 0.025 0.291 0.038 0.43 0.076 0.253 0.063 0.493 0.177 0.683 0.379 0.228 0.24 0.278 0.556 0.253 0.872-0.025 0.278-0.051 0.556-0.101 0.834-0.114 0.632-0.493 1.024-1.112 1.176-0.493 0.126-0.998 0.139-1.504 0.013-0.278-0.076-0.531-0.202-0.72-0.43-0.126-0.152-0.19-0.329-0.202-0.518-0.025-0.43 0.038-0.872 0.139-1.289 0.139-0.544 0.518-0.872 1.049-1.024 0.177-0.051 0.367-0.063 0.543-0.101h0.544v0.013z"></path>
<path fill="#fff" style="fill: var(--color2, #fff)" d="M24.844 15.014c0.025-0.215 0.051-0.43 0.088-0.657 0.126-0.784 0.556-1.201 1.327-1.327 0.228-0.038 0.455-0.038 0.682-0.038 0.379 0 0.771 0 1.15 0 0.114 0 0.126 0.013 0.088 0.114-0.101 0.303-0.291 0.518-0.67 0.506-0.303-0.013-0.619-0.025-0.923 0.013-0.367 0.038-0.607 0.24-0.683 0.607-0.063 0.303-0.114 0.607-0.114 0.91s0.164 0.48 0.468 0.518c0.379 0.038 0.746 0.013 1.125 0.025 0.139 0 0.278 0 0.417 0 0.063 0 0.088 0.025 0.076 0.088-0.076 0.316-0.316 0.531-0.645 0.531-0.354 0-0.72 0.013-1.074 0-0.367-0.013-0.708-0.114-0.998-0.367-0.19-0.164-0.265-0.379-0.316-0.619v-0.303z"></path>
<path fill="#fff" style="fill: var(--color2, #fff)" d="M35.892 14.458c-0.126 0.152-0.24 0.303-0.367 0.455-0.177 0.228-0.354 0.442-0.531 0.67-0.202 0.265-0.405 0.265-0.556-0.051-0.164-0.329-0.341-0.67-0.518-0.998-0.013-0.025-0.038-0.063-0.063-0.126-0.025 0.19-0.038 0.341-0.063 0.493-0.038 0.303-0.076 0.607-0.114 0.91-0.038 0.291-0.266 0.468-0.544 0.468-0.126 0-0.265 0-0.392 0-0.063 0-0.089-0.025-0.076-0.088 0.089-0.708 0.177-1.403 0.265-2.111 0.038-0.329 0.076-0.645 0.114-0.973 0.013-0.076 0.038-0.101 0.114-0.101 0.177 0.013 0.341-0.013 0.518 0.013 0.152 0.025 0.265 0.101 0.341 0.24 0.253 0.417 0.518 0.822 0.771 1.239 0.063 0.101 0.063 0.101 0.139 0.013 0.379-0.442 0.771-0.872 1.15-1.315 0.126-0.139 0.291-0.177 0.468-0.19 0.126 0 0.266 0 0.392 0 0.089 0 0.114 0.025 0.101 0.114-0.038 0.278-0.076 0.556-0.101 0.834-0.063 0.556-0.139 1.112-0.202 1.668-0.013 0.063-0.013 0.126-0.025 0.19-0.051 0.278-0.265 0.455-0.543 0.468-0.114 0-0.24 0-0.354 0-0.089 0-0.114-0.038-0.101-0.114 0.038-0.341 0.089-0.682 0.126-1.024 0.025-0.228 0.051-0.455 0.089-0.682-0.025 0.013-0.038 0-0.038 0z"></path>
<path fill="#fff" style="fill: var(--color2, #fff)" d="M43.159 13.026c0.316 0.013 0.695-0.025 1.062 0.038 0.278 0.051 0.544 0.114 0.771 0.291s0.341 0.417 0.367 0.708c0.013 0.291-0.038 0.569-0.076 0.859-0.025 0.19-0.051 0.379-0.126 0.544-0.177 0.43-0.518 0.657-0.961 0.746-0.215 0.051-0.442 0.076-0.67 0.076-0.392 0-0.771 0-1.163 0-0.101 0-0.202-0.013-0.303-0.038-0.19-0.063-0.265-0.177-0.24-0.366 0.025-0.202 0.051-0.417 0.076-0.619 0.051-0.405 0.101-0.796 0.152-1.201 0.013-0.088 0.038-0.126 0.126-0.114 0.152 0.013 0.303-0.013 0.455 0.013 0.215 0.038 0.367 0.228 0.341 0.455-0.038 0.392-0.089 0.771-0.139 1.163-0.013 0.088 0.013 0.114 0.089 0.114 0.215-0.013 0.43 0.013 0.645-0.013 0.468-0.063 0.695-0.278 0.746-0.758 0.025-0.177 0.051-0.367 0.076-0.544 0.063-0.43-0.164-0.708-0.594-0.72-0.316-0.013-0.632 0-0.948 0-0.063 0-0.126 0-0.19 0-0.329-0.013-0.468-0.177-0.468-0.531 0-0.076 0.051-0.076 0.101-0.076 0.291-0.025 0.556-0.025 0.872-0.025z"></path>
</symbol>
<symbol id="icon-discover" viewBox="0 0 175 32">
<path fill="#8a8a8a" style="fill: var(--color8, #8a8a8a)" d="M0 1.43c-0.002-0.454 0.066-0.619 0.58-0.612 2.64 0.037 5.283-0.036 7.922 0.046 3.882 0.121 7.409 1.252 10.286 3.994 1.98 1.887 3.225 4.197 3.715 6.877 0.976 5.34-0.529 9.87-4.597 13.493-2.221 1.977-4.881 2.971-7.821 3.209-3.24 0.261-6.489 0.054-9.733 0.124-0.388 0.009-0.345-0.201-0.345-0.445 0.003-2.733 0.009-22.266-0.008-26.686zM5.401 23.347c-0.002 0.375 0.077 0.496 0.474 0.49 1.082-0.014 2.165-0.003 3.24-0.124 1.963-0.22 3.805-0.783 5.242-2.221 2.416-2.417 3.304-5.356 2.633-8.682-0.676-3.35-2.604-5.71-5.947-6.746-1.628-0.504-3.321-0.473-5.007-0.494-0.48-0.006-0.647 0.089-0.641 0.616 0.030 2.841 0.022 14.282 0.005 17.16z"></path>
<path fill="#8a8a8a" style="fill: var(--color8, #8a8a8a)" d="M163.869 16.934c2.904 3.884 5.762 7.706 8.689 11.62-0.456 0-0.812 0-1.168 0-1.633 0-3.266-0.025-4.898 0.015-0.495 0.012-0.744-0.172-1-0.556-2.263-3.393-4.546-6.773-6.824-10.157-0.031-0.046-0.068-0.089-0.089-0.139-0.138-0.338-0.433-0.316-0.696-0.262-0.289 0.060-0.151 0.331-0.152 0.502-0.009 3.321-0.021 6.642 0.008 9.962 0.005 0.552-0.159 0.66-0.672 0.647-1.43-0.037-2.862-0.023-4.293-0.006-0.361 0.005-0.507-0.061-0.507-0.471 0.012-8.935 0.010-17.87 0.004-26.804 0-0.303 0.032-0.467 0.407-0.458 3.080 0.064 6.164-0.123 9.241 0.113 2.136 0.164 4.146 0.742 5.789 2.198 1.97 1.747 2.525 4.040 2.391 6.565-0.197 3.714-2.221 6.166-5.827 7.080-0.121 0.031-0.237 0.087-0.404 0.149zM157.726 9.422c0 1.227 0.022 2.454-0.012 3.68-0.012 0.43 0.125 0.514 0.519 0.498 0.804-0.033 1.608-0.015 2.412-0.1 2.354-0.248 3.693-1.609 3.868-3.967 0.141-1.899-0.83-3.335-2.636-3.927-1.188-0.389-2.413-0.347-3.637-0.371-0.4-0.008-0.536 0.079-0.525 0.507 0.031 1.226 0.011 2.453 0.011 3.68z"></path>
<path fill="#8a8a8a" style="fill: var(--color8, #8a8a8a)" d="M133.418 1.38c-0.001-0.416 0.083-0.552 0.531-0.55 4.769 0.018 9.539 0.015 14.308 0.003 0.371-0.001 0.506 0.072 0.497 0.474-0.027 1.283-0.027 2.568 0 3.852 0.008 0.387-0.135 0.439-0.47 0.438-2.953-0.011-5.907 0.007-8.86-0.020-0.502-0.004-0.602 0.142-0.594 0.613 0.030 1.669 0.026 3.339 0.001 5.007-0.006 0.417 0.111 0.518 0.52 0.515 2.843-0.018 5.687 0.002 8.53-0.022 0.449-0.004 0.535 0.135 0.526 0.547-0.026 1.229-0.026 2.458 0.001 3.687 0.008 0.388-0.103 0.481-0.484 0.479-2.825-0.017-5.65 0.006-8.474-0.023-0.527-0.006-0.624 0.161-0.619 0.644 0.025 2.091 0.022 4.182 0.001 6.273-0.004 0.416 0.082 0.553 0.531 0.549 2.953-0.023 5.906-0.001 8.86-0.023 0.441-0.003 0.54 0.122 0.531 0.542-0.028 1.265-0.019 2.532-0.004 3.797 0.004 0.303-0.071 0.406-0.392 0.405-4.842-0.010-9.685-0.014-14.528 0.004-0.441 0.002-0.406-0.214-0.406-0.502 0.003-4.477 0.008-22.27-0.007-26.69z"></path>
<path fill="#8a8a8a" style="fill: var(--color8, #8a8a8a)" d="M36.182 20.548c0.73 1.365 1.692 2.476 3.109 3.099 1.523 0.669 3.091 0.903 4.672 0.196 1.437-0.642 2.212-1.787 2.274-3.347 0.061-1.545-0.765-2.58-2.104-3.248-1.538-0.768-3.202-1.224-4.774-1.907-1.536-0.667-3-1.44-4.060-2.806-0.648-0.835-1.008-1.79-1.134-2.812-0.56-4.552 1.933-7.808 5.715-8.878 3.95-1.118 7.507-0.136 10.693 2.369 0.235 0.185 0.316 0.315 0.090 0.598-0.811 1.016-1.604 2.047-2.371 3.097-0.233 0.319-0.335 0.229-0.547 0.002-0.867-0.925-1.862-1.674-3.151-1.859-1.627-0.233-3.167-0.024-4.3 1.325-1.013 1.206-0.788 2.725 0.491 3.633 1.145 0.813 2.48 1.223 3.771 1.722 1.211 0.468 2.393 0.991 3.525 1.633 2.309 1.309 3.578 3.229 3.744 5.921 0.279 4.543-2.11 8.381-6.559 9.524-4.747 1.22-9.385-0.131-12.431-4.627-0.125-0.186-0.139-0.294 0.034-0.458 1.103-1.046 2.195-2.103 3.311-3.176z"></path>
<path fill="#8a8a8a" style="fill: var(--color8, #8a8a8a)" d="M104.378 0.84c1.882 0 3.679 0.012 5.475-0.010 0.36-0.004 0.5 0.125 0.624 0.439 1.654 4.187 6.419 16.175 7.151 18.026 0.334-0.369 5.096-12.445 7.34-18.044 0.089-0.223 0.154-0.42 0.48-0.418 1.833 0.016 3.666 0.008 5.577 0.008-0.436 1.047-8.288 19.678-11.783 27.997-0.138 0.329-0.292 0.437-0.635 0.424-0.696-0.026-1.394-0.025-2.090-0-0.31 0.011-0.45-0.102-0.565-0.381-2.154-5.224-9.71-23.478-11.325-27.386-0.083-0.2-0.155-0.404-0.251-0.654z"></path>
<path fill="#8a8a8a" style="fill: var(--color8, #8a8a8a)" d="M74.894 8.331c-1.022-0.978-2.002-1.8-3.173-2.341-4.606-2.13-10.15 0.158-11.925 5.042-1.367 3.762-0.912 7.34 1.835 10.395 1.837 2.043 4.264 2.788 6.97 2.76 2.147-0.022 3.924-0.896 5.494-2.283 0.231-0.204 0.455-0.417 0.679-0.624 0.195 0.107 0.115 0.272 0.115 0.401 0.006 1.816 0.001 3.632 0.008 5.449 0.001 0.276-0.040 0.444-0.339 0.588-5.562 2.678-12.597 1.618-16.948-2.836-2.693-2.756-4.019-6.084-4.103-9.936-0.142-6.518 4.201-12.201 10.243-14.027 3.707-1.12 7.326-0.906 10.817 0.847 0.188 0.094 0.334 0.175 0.332 0.435-0.011 1.999-0.006 3.997-0.006 6.131z"></path>
<path fill="#8a8a8a" style="fill: var(--color8, #8a8a8a)" d="M30.684 27.957c0.002 0.455-0.066 0.635-0.587 0.62-1.466-0.043-2.935-0.026-4.402-0.007-0.356 0.005-0.466-0.087-0.465-0.455 0.010-8.934 0.011-17.869-0.001-26.803-0.001-0.403 0.132-0.482 0.501-0.477 1.449 0.020 2.899 0.029 4.348-0.004 0.48-0.011 0.612 0.104 0.61 0.598-0.022 4.439-0.019 22.125-0.003 26.528z"></path>
<path fill="#231f20" style="fill: var(--color9, #231f20)" d="M173.764 3c0.262 0.35 0.52 0.696 0.784 1.049-0.041 0-0.073 0-0.105 0-0.148 0-0.295-0.002-0.442 0.001-0.044 0.001-0.067-0.015-0.090-0.050-0.204-0.306-0.41-0.612-0.616-0.917-0.003-0.004-0.006-0.008-0.008-0.012-0.012-0.031-0.039-0.029-0.063-0.024-0.026 0.006-0.014 0.030-0.014 0.045-0.001 0.3-0.002 0.599 0.001 0.899 0.001 0.050-0.014 0.060-0.061 0.058-0.129-0.003-0.258-0.002-0.387-0-0.033 0-0.046-0.005-0.046-0.043 0.001-0.806 0.001-1.613 0.001-2.42 0-0.027 0.003-0.042 0.037-0.042 0.278 0.006 0.556-0.011 0.834 0.010 0.193 0.015 0.374 0.067 0.523 0.199 0.178 0.157 0.228 0.365 0.216 0.593-0.018 0.335-0.2 0.557-0.526 0.639-0.012 0.002-0.022 0.008-0.037 0.013zM173.209 2.322c0 0.111 0.003 0.222-0.001 0.332-0.001 0.039 0.011 0.047 0.047 0.045 0.073-0.003 0.145-0.001 0.218-0.009 0.213-0.022 0.333-0.145 0.349-0.358 0.013-0.171-0.075-0.301-0.238-0.354-0.107-0.035-0.218-0.031-0.328-0.034-0.036-0-0.049 0.007-0.047 0.046 0.003 0.11 0.001 0.221 0.001 0.332z"></path>
<path fill="#8a8a8a" style="fill: var(--color8, #8a8a8a)" d="M91.267 29.404c8.091 0 14.65-6.582 14.65-14.702s-6.559-14.702-14.65-14.702c-8.091 0-14.65 6.582-14.65 14.702s6.559 14.702 14.65 14.702z"></path>
<path fill="#717171" style="fill: var(--color10, #717171)" d="M91.267 29.404c8.091 0 14.65-6.582 14.65-14.702s-6.559-14.702-14.65-14.702c-8.091 0-14.65 6.582-14.65 14.702s6.559 14.702 14.65 14.702z"></path>
</symbol>
<symbol id="icon-email" viewBox="0 0 43 32">
<path fill="#8a8a8a" style="fill: var(--color8, #8a8a8a)" d="M25.344 20.814c-1.080 0.709-2.336 1.083-3.63 1.083s-2.549-0.375-3.629-1.083l-17.796-11.672c-0.099-0.065-0.195-0.132-0.289-0.202v19.126c0 2.193 1.809 3.933 3.998 3.933h35.433c2.229 0 3.998-1.78 3.998-3.933v-19.126c-0.094 0.070-0.191 0.137-0.29 0.202l-17.795 11.672z"></path>
<path fill="#8a8a8a" style="fill: var(--color8, #8a8a8a)" d="M1.701 7.059l17.796 11.672c0.674 0.442 1.446 0.663 2.218 0.663s1.544-0.221 2.218-0.663l17.796-11.672c1.065-0.698 1.701-1.866 1.701-3.127 0-2.168-1.793-3.932-3.997-3.932h-35.435c-2.204 0-3.997 1.764-3.997 3.934 0 1.259 0.636 2.427 1.701 3.125z"></path>
</symbol>
<symbol id="icon-facebook" viewBox="0 0 32 32">
<path fill="#f4c22f" style="fill: var(--color11, #f4c22f)" d="M32 16c0-8.838-7.163-16-16-16s-16 7.162-16 16c0 8.837 7.162 16 16 16 0.094 0 0.188 0 0.281-0.006v-12.45h-3.437v-4.006h3.437v-2.95c0-3.419 2.087-5.281 5.138-5.281 1.462 0 2.719 0.106 3.081 0.156v3.575h-2.1c-1.656 0-1.981 0.787-1.981 1.944v2.55h3.969l-0.519 4.006h-3.45v11.844c6.688-1.919 11.581-8.075 11.581-15.381z"></path>
</symbol>
<symbol id="icon-instagram" viewBox="0 0 32 32">
<path fill="#f4c22f" style="fill: var(--color11, #f4c22f)" d="M19.063 16c0 1.691-1.371 3.063-3.063 3.063s-3.063-1.371-3.063-3.063c0-1.691 1.371-3.063 3.063-3.063s3.063 1.371 3.063 3.063z"></path>
<path fill="#f4c22f" style="fill: var(--color11, #f4c22f)" d="M23.162 10.582c-0.147-0.399-0.382-0.76-0.687-1.056-0.296-0.305-0.657-0.54-1.056-0.687-0.324-0.126-0.81-0.275-1.706-0.316-0.969-0.044-1.26-0.054-3.713-0.054s-2.744 0.009-3.713 0.053c-0.896 0.041-1.382 0.191-1.706 0.316-0.399 0.147-0.76 0.382-1.056 0.687-0.305 0.296-0.54 0.657-0.687 1.056-0.126 0.324-0.275 0.81-0.316 1.706-0.044 0.969-0.054 1.259-0.054 3.713s0.010 2.744 0.054 3.713c0.041 0.896 0.19 1.382 0.316 1.706 0.147 0.399 0.382 0.76 0.687 1.056 0.296 0.305 0.657 0.54 1.056 0.687 0.324 0.126 0.81 0.276 1.706 0.316 0.969 0.044 1.259 0.053 3.712 0.053s2.744-0.009 3.713-0.053c0.896-0.041 1.382-0.19 1.706-0.316 0.801-0.309 1.435-0.942 1.744-1.744 0.126-0.324 0.275-0.81 0.316-1.706 0.044-0.969 0.053-1.26 0.053-3.713s-0.009-2.744-0.053-3.713c-0.041-0.896-0.19-1.382-0.316-1.706zM16 20.718c-2.606 0-4.718-2.112-4.718-4.718s2.112-4.718 4.718-4.718c2.605 0 4.718 2.112 4.718 4.718s-2.112 4.718-4.718 4.718zM20.904 12.198c-0.609 0-1.103-0.494-1.103-1.103s0.494-1.103 1.103-1.103c0.609 0 1.103 0.494 1.103 1.103s-0.494 1.103-1.103 1.103z"></path>
<path fill="#f4c22f" style="fill: var(--color11, #f4c22f)" d="M16 0c-8.835 0-16 7.165-16 16s7.165 16 16 16c8.835 0 16-7.165 16-16s-7.165-16-16-16zM25.132 19.788c-0.044 0.978-0.2 1.646-0.427 2.23-0.477 1.234-1.453 2.21-2.687 2.687-0.584 0.227-1.252 0.382-2.23 0.427-0.98 0.045-1.293 0.055-3.788 0.055s-2.808-0.011-3.788-0.055c-0.978-0.045-1.646-0.2-2.23-0.427-0.613-0.231-1.168-0.592-1.627-1.060-0.467-0.459-0.829-1.014-1.060-1.627-0.227-0.584-0.383-1.252-0.427-2.23-0.045-0.98-0.056-1.293-0.056-3.788s0.011-2.808 0.055-3.788c0.044-0.978 0.2-1.646 0.427-2.23 0.231-0.613 0.593-1.168 1.060-1.627 0.459-0.468 1.014-0.829 1.627-1.060 0.585-0.227 1.252-0.382 2.23-0.427 0.98-0.045 1.293-0.055 3.788-0.055s2.808 0.011 3.788 0.056c0.978 0.044 1.646 0.2 2.23 0.426 0.613 0.231 1.168 0.593 1.627 1.060 0.467 0.459 0.829 1.014 1.060 1.627 0.227 0.585 0.383 1.252 0.427 2.23 0.045 0.98 0.055 1.293 0.055 3.788s-0.011 2.808-0.055 3.788z"></path>
</symbol>
<symbol id="icon-linkedin" viewBox="0 0 32 32">
<path fill="#f4c22f" style="fill: var(--color11, #f4c22f)" d="M16 0c-8.835 0-16 7.165-16 16s7.165 16 16 16c8.835 0 16-7.165 16-16s-7.165-16-16-16zM11.351 24.188h-3.897v-11.723h3.897v11.723zM9.402 10.863h-0.025c-1.308 0-2.153-0.9-2.153-2.025 0-1.15 0.872-2.026 2.205-2.026s2.153 0.875 2.179 2.026c0 1.125-0.846 2.025-2.205 2.025zM25.401 24.188h-3.896v-6.272c0-1.576-0.564-2.651-1.974-2.651-1.076 0-1.718 0.725-1.999 1.425-0.103 0.25-0.128 0.601-0.128 0.951v6.547h-3.896c0 0 0.051-10.624 0-11.723h3.896v1.66c0.518-0.799 1.444-1.935 3.512-1.935 2.564 0 4.486 1.676 4.486 5.276v6.722z"></path>
</symbol>
<symbol id="icon-logo" viewBox="0 0 38 32">
<path fill="#623c21" style="fill: var(--color12, #623c21)" d="M11.009 7.004c0.057 0.014 0.108 0.046 0.144 0.092 0.045 0.070 0.082 0.145 0.11 0.224l1.372 4.007 0.012 0.032h0.224l0.49-1.711 0.542 1.711h0.234l1.206-4.375h0.381v-0.248h-1.252v0.248h0.048c0.381 0 0.381 0.175 0.381 0.232 0 0.082 0 0.121 0 0.134l-0.801 3.064-0.539-1.624 0.515-1.806h0.335v-0.248h-1.155v0.244h0.043c0.097 0.003 0.191 0.029 0.275 0.076 0.022 0.019 0.039 0.043 0.051 0.070s0.016 0.056 0.014 0.085c0.001 0.062-0.004 0.125-0.013 0.186l-0.273 0.917-0.454-1.336h0.297v-0.244h-1.105v0.248h0.048c0.101-0.002 0.199 0.030 0.28 0.091s0.137 0.148 0.162 0.245l0.577 1.784-0.375 1.315-1.154-3.436h0.404v-0.248h-1.356v0.248h0.048c0.096-0.002 0.192 0.004 0.287 0.020z"></path>
<path fill="#623c21" style="fill: var(--color12, #623c21)" d="M17.283 9.176c-0.241-0.008-0.48 0.045-0.695 0.153-0.183 0.085-0.335 0.227-0.433 0.404-0.094 0.159-0.143 0.34-0.144 0.525-0 0.166 0.042 0.329 0.123 0.473 0.077 0.158 0.199 0.291 0.35 0.381s0.325 0.136 0.501 0.129c0.242-0.002 0.481-0.057 0.7-0.163v0.074h0.779v-0.251h-0.048c-0.097 0.003-0.195-0.008-0.288-0.035-0.036-0.010-0.076-0.035-0.076-0.124v-1.816c-0.004-0.134-0.044-0.265-0.115-0.378-0.084-0.133-0.2-0.243-0.338-0.319-0.138-0.080-0.295-0.122-0.454-0.12-0.14-0.003-0.279 0.019-0.411 0.065-0.094 0.032-0.182 0.081-0.26 0.144l-0.010 0.010c-0.020 0.014-0.039 0.030-0.056 0.045l-0.059 0.049v-0.414h-0.25v1.356h0.25v-0.048c0.002-0.15 0.035-0.297 0.098-0.433 0.059-0.146 0.153-0.275 0.275-0.375 0.1-0.093 0.231-0.144 0.368-0.144 0.097 0.002 0.19 0.036 0.265 0.097 0.092 0.073 0.165 0.168 0.211 0.277 0.050 0.11 0.077 0.229 0.078 0.35 0.002 0.039 0.002 0.079 0 0.118l-0.359-0.032zM17.681 10.721c-0.173 0.152-0.393 0.237-0.623 0.241-0.089 0.001-0.178-0.015-0.261-0.048s-0.159-0.082-0.222-0.144c-0.145-0.147-0.227-0.346-0.228-0.552-0.005-0.145 0.033-0.288 0.108-0.413 0.070-0.112 0.17-0.202 0.288-0.26 0.116-0.056 0.243-0.086 0.372-0.089 0.11-0.012 0.221 0.005 0.322 0.049s0.189 0.114 0.255 0.203l-0.012 1.013z"></path>
<path fill="#623c21" style="fill: var(--color12, #623c21)" d="M19.335 7.569c0-0.675 0.182-1.010 0.555-1.010 0.18 0.006 0.356 0.052 0.515 0.136v0.762h0.127c-0.006 0.053-0.010 0.107-0.010 0.16v0.604h-0.317v0.303h0.317v2.377h-0.317v0.251h1.090v-0.251h-0.049c-0.144 0-0.229-0.026-0.26-0.076-0.038-0.075-0.056-0.159-0.053-0.244v-2.057h0.625v-0.303h-0.625v-0.652c0-0.675 0.182-1.010 0.554-1.010 0.18 0.006 0.356 0.052 0.515 0.136v0.089l-0.254 0.312 0.176 0.17 0.084-0.084v0.28h0.133v3.439h-0.317v0.251h1.036v-0.251h-0.045c-0.071 0.005-0.142-0.009-0.205-0.042-0.027-0.020-0.058-0.078-0.058-0.226v-4.099l0.183-0.245-0.252-0.087-0.231 0.288v-0.28h-0.25v0.097c-0.119-0.020-0.239-0.030-0.359-0.029-0.164-0.009-0.327 0.024-0.475 0.095s-0.275 0.179-0.369 0.313c-0.056 0.086-0.104 0.178-0.144 0.273v-0.749h-0.248v0.097c-0.119-0.020-0.24-0.029-0.361-0.029-0.164-0.009-0.327 0.024-0.474 0.095s-0.274 0.179-0.368 0.313c-0.188 0.275-0.285 0.603-0.278 0.936v0.599h-0.319v0.303h0.317v2.377h-0.317v0.251h1.090v-0.251h-0.048c-0.144 0-0.231-0.026-0.261-0.076-0.037-0.076-0.056-0.159-0.053-0.244v-2.057h0.625v-0.303h-0.625v-0.652z"></path>
<path fill="#623c21" style="fill: var(--color12, #623c21)" d="M23.678 11.021c0.214 0.118 0.454 0.181 0.698 0.183h0.092c0.351-0.004 0.695-0.104 0.994-0.288 0.269-0.195 0.471-0.47 0.577-0.785l0.020-0.046-0.252-0.087-0.016 0.042c-0.098 0.243-0.267 0.451-0.485 0.596-0.221 0.148-0.474 0.241-0.739 0.27-0.019 0.001-0.037 0.005-0.055 0.012-0.006 0.001-0.012 0.001-0.017 0-0.197-0.005-0.389-0.066-0.552-0.176-0.191-0.123-0.351-0.29-0.466-0.486-0.113-0.191-0.173-0.409-0.175-0.632 0.005-0.162 0.041-0.322 0.105-0.472h2.606l-0.017-0.061c-0.047-0.164-0.135-0.315-0.254-0.437-0.134-0.149-0.297-0.268-0.479-0.35-0.212-0.092-0.441-0.138-0.672-0.136s-0.459 0.054-0.669 0.15c-0.242 0.105-0.457 0.265-0.627 0.467-0.186 0.213-0.305 0.476-0.343 0.756 0.002 0.039 0.002 0.079 0 0.118-0.006 0.044-0.009 0.087-0.009 0.131-0.003 0.259 0.069 0.514 0.208 0.733 0.131 0.208 0.312 0.379 0.526 0.498zM23.634 8.842c0.239-0.218 0.555-0.333 0.878-0.32 0.034 0.010 0.068 0.018 0.102 0.025l0.133 0.033c0.033 0.010 0.072 0.022 0.111 0.036l0.105 0.030 0.076 0.023c0.114 0.079 0.193 0.134 0.245 0.173h-1.652z"></path>
<path fill="#623c21" style="fill: var(--color12, #623c21)" d="M13.651 15.989c-0.285-0.173-0.613-0.261-0.946-0.252-0.406 0.006-0.807 0.086-1.184 0.237v-0.237h-0.876v0.257h0.046c0.114-0.010 0.229 0.017 0.327 0.076 0.034 0.039 0.060 0.085 0.076 0.135s0.022 0.102 0.017 0.154v3.571h-0.414v0.25h1.396v-0.25h-0.048c-0.033-0.001-0.065 0.003-0.097 0.010-0.029 0.002-0.058 0.002-0.087 0-0.306 0-0.342-0.131-0.342-0.231v-0.401c0.283 0.11 0.581 0.177 0.884 0.199 0.389 0.009 0.773-0.091 1.108-0.288 0.296-0.182 0.537-0.441 0.698-0.749 0.149-0.296 0.227-0.622 0.228-0.953 0.001-0.302-0.066-0.601-0.195-0.874-0.129-0.271-0.335-0.499-0.593-0.653zM12.497 19.214c-0.363-0.001-0.712-0.144-0.971-0.4v-2.439c0.109-0.117 0.246-0.205 0.398-0.255 0.184-0.072 0.38-0.108 0.577-0.105 0.359-0.003 0.708 0.118 0.988 0.343 0.288 0.228 0.459 0.577 0.513 1.052 0 0.022 0 0.075 0.016 0.144 0.003 0.048 0.003 0.096 0 0.144-0.001 0.262-0.077 0.518-0.218 0.738-0.143 0.232-0.341 0.424-0.577 0.56-0.219 0.139-0.473 0.214-0.733 0.218h0.006z"></path>
<path fill="#623c21" style="fill: var(--color12, #623c21)" d="M16.944 19.894c-0.036-0.012-0.076-0.036-0.076-0.124v-1.803c-0.005-0.133-0.045-0.263-0.115-0.376-0.079-0.13-0.19-0.238-0.322-0.314-0.136-0.080-0.292-0.122-0.45-0.12-0.14-0.003-0.279 0.019-0.411 0.065-0.093 0.033-0.18 0.081-0.257 0.144l-0.078 0.063-0.046 0.039v-0.414h-0.248v1.349h0.248v-0.046c0.001-0.149 0.034-0.297 0.097-0.433 0.058-0.146 0.151-0.274 0.273-0.374 0.099-0.092 0.229-0.144 0.365-0.144 0.096 0.002 0.189 0.035 0.264 0.095 0.091 0.073 0.164 0.167 0.211 0.274 0.050 0.11 0.076 0.229 0.078 0.349 0.002 0.039 0.002 0.079 0 0.118l-0.351-0.033c-0.239-0.009-0.477 0.040-0.692 0.144-0.183 0.086-0.334 0.227-0.433 0.404-0.094 0.158-0.143 0.337-0.144 0.521-0.001 0.164 0.040 0.325 0.12 0.469 0.081 0.152 0.198 0.281 0.342 0.375 0.154 0.088 0.328 0.134 0.505 0.134 0.241-0.002 0.478-0.058 0.694-0.163v0.074h0.772v-0.25h-0.048c-0.099 0.007-0.199-0-0.296-0.023zM15.946 18.493c0.108-0.010 0.216 0.007 0.315 0.051s0.185 0.112 0.25 0.199v1.010c-0.171 0.15-0.39 0.234-0.617 0.239-0.179 0.002-0.352-0.067-0.48-0.192-0.145-0.146-0.226-0.343-0.225-0.548-0.005-0.144 0.032-0.286 0.108-0.408 0.066-0.112 0.163-0.202 0.28-0.26 0.115-0.056 0.241-0.087 0.369-0.091z"></path>
<path fill="#623c21" style="fill: var(--color12, #623c21)" d="M19.602 19.896c0 0-0.029-0.019-0.029-0.127v-1.627c0.007-0.197-0.043-0.392-0.144-0.561-0.082-0.126-0.198-0.226-0.335-0.288-0.113-0.053-0.236-0.081-0.361-0.081s-0.248 0.028-0.361 0.081c-0.069 0.040-0.163 0.104-0.28 0.188v-0.055l0.172-0.288-0.18-0.094-0.731 0.953 0.18 0.102 0.144-0.188v2.019h-0.261v0.25h1.082v-0.25h-0.036c-0.1 0.006-0.2-0.015-0.288-0.061-0.050-0.029-0.074-0.1-0.074-0.206v-1.418c-0.011-0.198 0.047-0.394 0.164-0.554 0.043-0.058 0.098-0.105 0.162-0.137s0.134-0.050 0.206-0.052c0.090 0 0.178 0.030 0.25 0.085 0.087 0.064 0.156 0.149 0.199 0.248 0.057 0.129 0.084 0.269 0.081 0.41v1.685h-0.322v0.25h1.089v-0.25h-0.046c-0.095 0.009-0.191-0.003-0.281-0.035z"></path>
<path fill="#623c21" style="fill: var(--color12, #623c21)" d="M21.914 19.586c-0.059 0.12-0.15 0.22-0.264 0.29s-0.245 0.106-0.378 0.104c-0.288-0.033-0.426-0.333-0.426-0.894v-1.517h0.565v-0.309h-0.565v-1.317h-0.127l-0.288 0.345v0.972h-0.314v0.309h0.314v1.731c-0.005 0.13 0.017 0.26 0.063 0.381s0.117 0.232 0.208 0.326c0.085 0.088 0.187 0.157 0.3 0.204s0.234 0.071 0.356 0.070c0.152 0.007 0.303-0.031 0.433-0.11 0.097-0.059 0.175-0.144 0.226-0.245 0.043-0.070 0.070-0.149 0.078-0.231v-0.066l-0.169-0.085-0.013 0.043z"></path>
<path fill="#623c21" style="fill: var(--color12, #623c21)" d="M25.511 17.316v0.25h0.048c0.090-0.005 0.181 0.005 0.268 0.030 0.048 0.027 0.059 0.113 0.059 0.18-0.028 0.278-0.092 0.551-0.189 0.812-0.098 0.304-0.176 0.518-0.232 0.643l-0.62-1.666h0.288v-0.25h-1.059v-0.263h-0.255v0.231c-0.099-0.042-0.206-0.063-0.313-0.061-0.111-0.002-0.221 0.020-0.323 0.065s-0.192 0.112-0.264 0.196l0.221-0.288-0.17-0.167-0.792 0.897 0.173 0.175 0.159-0.159v1.982h-0.314v0.25h1.082v-0.25h-0.046c-0.213 0-0.312-0.085-0.312-0.267v-1.758c0.162-0.26 0.338-0.389 0.519-0.389 0.048-0.006 0.097 0.001 0.141 0.020s0.083 0.049 0.113 0.087c0.068 0.081 0.105 0.183 0.105 0.288 0.015 0.151 0.023 0.303 0.022 0.454v0.048h0.255v-0.832c0.238 0 0.387 0.098 0.447 0.281l0.721 1.975c-0.092 0.243-0.202 0.478-0.329 0.705-0.135 0.233-0.283 0.458-0.443 0.675-0.18 0.226-0.273 0.26-0.313 0.26-0.005-0-0.010-0.001-0.015-0.004s-0.009-0.005-0.012-0.009l-0.014-0.012h-0.218v0.577h0.052c0.214-0.032 0.411-0.133 0.561-0.288 0.188-0.186 0.348-0.397 0.477-0.627 0.161-0.295 0.303-0.599 0.426-0.912 0.136-0.329 0.288-0.749 0.462-1.243l0.457-1.382h0.327v-0.25l-1.15-0.004z"></path>
<path fill="#623c21" style="fill: var(--color12, #623c21)" d="M36.651 19.472c-1.277 0.409-2.507 0.951-3.671 1.617 0.164-0.348 0.317-0.7 0.457-1.062 1.085-0.117 3.374-0.76 3.873-4.095 0 0-1.431 0.469-3.273 2.175 0.079-0.326 0.144-0.658 0.203-0.992 1.041-0.397 3.056-1.621 2.781-5.093 0 0-1.248 0.721-2.556 2.914 0-0.175 0.013-0.349 0.013-0.525 0-0.248-0.010-0.492-0.022-0.737 0.884-0.596 2.569-2.192 1.701-5.356-0.736 0.99-1.391 2.037-1.96 3.131-0.068-0.349-0.144-0.691-0.234-1.033 0.653-0.671 1.952-2.477 0.509-5.224 0 0-0.789 1.416-1.018 3.616-0.157-0.408-0.327-0.812-0.516-1.204 0.424-0.776 1.112-2.732-0.649-5.376-0.287 1.158-0.419 2.349-0.392 3.541-0.213-0.323-0.439-0.638-0.678-0.943 0.176-0.92 0.413-3.404-1.771-4.826 0 0-0.356 0.824 0.288 3.173-0.076-0.076-0.16-0.144-0.239-0.221-0.471-0.757-1.116-1.391-1.881-1.85s-1.628-0.728-2.518-0.786c0 0 0.811 1.99 4.35 3.593 0 0-2.058-0.617-3.293 0.247 0 0 2.585 1.748 4.652 1.154 0.234 0.307 0.46 0.622 0.669 0.945-0.756-0.208-2.331-0.563-3.508-0.322 0 0 2.386 2.234 4.471 2.070 0.18 0.385 0.346 0.776 0.492 1.176-0.788-0.402-2.397-1.114-3.482-0.865 0 0 2.019 2.583 3.962 2.42 0.143 0.579 0.252 1.165 0.326 1.757 0 0 0 0.014-0.009 0.022s-1.708-2.345-3.636-2.058c0 0 1.154 2.562 3.75 3.462 0 0.164 0.014 0.329 0.014 0.495 0 0.394-0.020 0.783-0.050 1.17-0.415-0.708-1.633-2.576-2.963-2.775 0 0-0.446 1.79 2.741 4.438-0.081 0.423-0.179 0.837-0.288 1.246-0.3-0.671-1.245-2.544-2.654-3.217 0 0-0.402 2.543 2.146 4.709-0.21 0.535-0.451 1.058-0.721 1.565-0.046-0.571-0.368-3.257-2.21-3.806 0 0-0.234 3.108 1.491 4.983-0.285 0.431-0.592 0.847-0.92 1.246-0.026-0.584-0.218-3.398-1.395-4.173 0 0-0.991 1.908 0.338 5.33-0.446 0.44-0.918 0.851-1.414 1.233l-0.117 0.023c0 0 1.379-3.004-0.319-4.568 0 0-1.236 0.991-0.508 5.216-0.427 0.28-0.869 0.537-1.323 0.772 0.592-1.369 0.711-2.897 0.338-4.342 0 0-2.132 0.675-1.793 5.001-3.595 1.403-7.591 1.371-11.163-0.089 0.304-4.246-1.799-4.904-1.799-4.904-0.359 1.388-0.263 2.854 0.273 4.183-0.424-0.232-0.837-0.483-1.233-0.753 0.676-4.111-0.532-5.079-0.532-5.079-1.455 1.34-0.651 3.737-0.391 4.395-0.49-0.389-0.955-0.808-1.393-1.255 1.23-3.317 0.273-5.158 0.273-5.158-1.046 0.687-1.314 2.977-1.379 3.894-0.288-0.361-0.556-0.735-0.802-1.122 1.577-1.887 1.356-4.829 1.356-4.829-1.565 0.469-2.019 2.49-2.164 3.427-0.221-0.436-0.419-0.884-0.594-1.34 2.355-2.132 1.97-4.558 1.97-4.558-1.22 0.581-2.094 2.080-2.498 2.899-0.094-0.364-0.169-0.734-0.237-1.108 2.966-2.553 2.539-4.265 2.539-4.265-1.154 0.172-2.218 1.595-2.754 2.435-0.016-0.276-0.025-0.551-0.025-0.829 0-0.195 0-0.388 0.012-0.577 2.436-0.968 3.517-3.375 3.517-3.375-1.464-0.213-2.811 1.099-3.365 1.732 0.072-0.488 0.168-0.969 0.288-1.442 1.875-0.045 3.729-2.426 3.729-2.426-0.964-0.228-2.344 0.312-3.192 0.721 0.132-0.346 0.276-0.688 0.433-1.024 2.028 0 4.244-2.079 4.244-2.079-1.046-0.215-2.402 0.043-3.224 0.247 0.183-0.278 0.375-0.554 0.577-0.822 2.032 0.447 4.458-1.194 4.458-1.194-1.079-0.754-2.784-0.379-3.199-0.273l0.032-0.033c3.431-1.587 4.232-3.534 4.232-3.534-0.987 0.061-1.94 0.381-2.764 0.927s-1.491 1.299-1.932 2.183l-0.059 0.061c0.779-2.595 0.392-3.498 0.392-3.498-2.412 1.571-1.875 4.438-1.721 5.061-0.262 0.353-0.508 0.717-0.739 1.092 0.065-1.322-0.062-2.646-0.378-3.93-1.963 2.95-0.88 5.048-0.518 5.595-0.226 0.493-0.428 0.998-0.603 1.512-0.146-2.497-1.063-4.137-1.063-4.137-1.601 3.059 0.18 4.949 0.692 5.405-0.098 0.397-0.183 0.799-0.25 1.206-0.798-1.731-2.129-3.489-2.129-3.489-0.951 3.462 1.154 5.048 1.927 5.498-0.009 0.198-0.014 0.395-0.014 0.594 0 0.326 0.014 0.651 0.035 0.974-1.396-2.552-2.813-3.362-2.813-3.362-0.301 3.775 2.109 4.893 3.029 5.18 0.072 0.407 0.163 0.808 0.268 1.204-1.992-1.952-3.586-2.474-3.586-2.474 0.539 3.606 3.173 4.068 4.114 4.114 0.163 0.421 0.342 0.833 0.538 1.235-1.257-0.752-2.597-1.358-3.993-1.804 0.815 3.619 4.039 3.537 4.92 3.446 0.217 0.335 0.447 0.661 0.689 0.978-2.037-0.577-4.417-0.721-4.417-0.721 1.862 3.101 4.818 2.51 5.731 2.234 0.28 0.288 0.568 0.558 0.865 0.821-2.117-0.208-4.541 0.154-4.541 0.154 2.404 2.859 5.281 1.526 6.106 1.050 0.536 0.361 1.094 0.688 1.67 0.981-3.414-0.391-5.22 0.975-5.22 0.975 3.283 2.175 5.692 0.237 6.384-0.444 1.128 0.462 2.306 0.791 3.511 0.978 0.039 0.053 0.027 0.105-0.078 0.144-0.087 0.020-0.172 0.038-0.254 0.059h-0.016c-0.688 0.13-1.348 0.381-1.949 0.74v1.059c4.471-2.625 8.654-0.12 8.654-0.12v-0.987c-0.589-0.285-1.204-0.512-1.836-0.678 0 0-0.277-0.088-0.301-0.144 1.357-0.157 2.688-0.491 3.958-0.994 0.769 0.721 3.134 2.491 6.318 0.381 0 0-1.703-1.298-4.933-1.010 0.517-0.265 1.019-0.559 1.503-0.88 0.961 0.518 3.688 1.61 5.983-1.119 0 0-2.233-0.335-4.285-0.176 0.275-0.241 0.541-0.489 0.798-0.747 1.077 0.28 3.795 0.63 5.545-2.286-1.387 0.098-2.764 0.312-4.117 0.638 0.213-0.288 0.415-0.577 0.61-0.878 1.105 0.066 3.943-0.104 4.701-3.462z"></path>
</symbol>
<symbol id="icon-mastercard" viewBox="0 0 51 32">
<path fill="#717171" style="fill: var(--color10, #717171)" d="M31.714 3.303h-13.518v24.286h13.518v-24.286z"></path>
<path fill="#8a8a8a" style="fill: var(--color8, #8a8a8a)" d="M19.097 15.447c0-4.934 2.32-9.313 5.879-12.143-2.619-2.060-5.924-3.304-9.528-3.304-8.539 0-15.447 6.909-15.447 15.447s6.909 15.447 15.447 15.447c3.604 0 6.909-1.245 9.528-3.304-3.564-2.789-5.879-7.209-5.879-12.143z"></path>
<path fill="#c4c4c4" style="fill: var(--color13, #c4c4c4)" d="M49.951 15.447c0 8.539-6.909 15.447-15.447 15.447-3.604 0-6.909-1.245-9.528-3.304 3.604-2.835 5.879-7.209 5.879-12.143s-2.32-9.313-5.879-12.143c2.615-2.060 5.919-3.304 9.523-3.304 8.544 0 15.452 6.954 15.452 15.447z"></path>
</symbol>
<symbol id="icon-next" viewBox="0 0 32 32">
<path fill="#676767" style="fill: var(--color3, #676767)" d="M16 0c-8.836 0-16 7.163-16 16s7.163 16 16 16c8.837 0 16-7.164 16-16-0.010-8.832-7.167-15.99-16-16zM16 30.4c-7.953 0-14.4-6.447-14.4-14.4s6.447-14.4 14.4-14.4c7.953 0 14.4 6.447 14.4 14.4-0.009 7.949-6.451 14.391-14.4 14.4z"></path>
<path fill="#676767" style="fill: var(--color3, #676767)" d="M14.127 9.798c-0.333-0.291-0.838-0.257-1.129 0.076s-0.257 0.838 0.076 1.129l5.712 4.997-5.712 4.998c-0.333 0.291-0.367 0.796-0.076 1.129s0.796 0.367 1.129 0.076l6.4-5.6c0.174-0.152 0.273-0.372 0.273-0.602s-0.1-0.45-0.273-0.602l-6.4-5.6z"></path>
</symbol>
<symbol id="icon-phone" viewBox="0 0 32 32">
<path fill="#8a8a8a" style="fill: var(--color8, #8a8a8a)" d="M31.161 23.485l-4.475-4.466c-1.598-1.595-4.315-0.957-4.955 1.116-0.479 1.435-2.078 2.233-3.516 1.914-3.197-0.797-7.512-4.944-8.311-8.293-0.479-1.435 0.479-3.030 1.918-3.509 2.078-0.638 2.717-3.349 1.119-4.944l-4.475-4.466c-1.279-1.116-3.197-1.116-4.315 0l-3.037 3.030c-3.037 3.19 0.32 11.643 7.831 19.139s15.982 11.005 19.179 7.815l3.037-3.030c1.119-1.276 1.119-3.19 0-4.306z"></path>
</symbol>
<symbol id="icon-pinterest" viewBox="0 0 33 32">
<path fill="#f4c22f" style="fill: var(--color11, #f4c22f)" d="M16.498 0c-9.102 0-16.498 7.137-16.498 16s7.396 16 16.498 16c9.102 0 16.416-7.137 16.416-16s-7.314-16-16.416-16zM17.798 20.314c-1.219-0.079-1.707-0.706-2.682-1.255-0.488 2.666-1.138 5.176-3.007 6.51-0.569-4 0.813-6.98 1.463-10.196-1.138-1.804 0.162-5.568 2.519-4.627 2.926 1.098-2.519 6.902 1.138 7.608 3.901 0.784 5.445-6.51 3.088-8.863-3.495-3.373-10.077-0.079-9.265 4.784 0.244 1.177 1.463 1.569 0.569 3.216-2.276-0.471-2.926-2.196-2.844-4.392 0.163-3.686 3.413-6.275 6.745-6.667 4.145-0.471 8.046 1.49 8.533 5.255 0.65 4.314-1.869 8.942-6.258 8.628z"></path>
</symbol>
<symbol id="icon-rating" viewBox="0 0 240 32">
<path fill="#f4c22f" style="fill: var(--color11, #f4c22f)" d="M33.689 12.091c-0.222-0.676-0.829-1.155-1.544-1.219l-9.751-0.875-3.854-8.919c-0.284-0.655-0.932-1.078-1.652-1.078s-1.368 0.423-1.651 1.078l-3.854 8.919-9.752 0.875c-0.715 0.065-1.32 0.544-1.544 1.219-0.222 0.676-0.017 1.418 0.524 1.887l7.371 6.389-2.173 9.463c-0.159 0.696 0.114 1.415 0.698 1.833 0.314 0.226 0.683 0.338 1.053 0.338 0.318 0 0.636-0.084 0.921-0.252l8.408-4.97 8.406 4.97c0.617 0.364 1.392 0.331 1.975-0.086 0.584-0.417 0.857-1.137 0.698-1.833l-2.173-9.463 7.371-6.389c0.54-0.469 0.746-1.209 0.524-1.887z"></path>
<path fill="#f4c22f" style="fill: var(--color11, #f4c22f)" d="M239.911 12.091c-0.222-0.676-0.828-1.155-1.543-1.219l-9.751-0.875-3.854-8.919c-0.284-0.655-0.932-1.078-1.652-1.078s-1.369 0.423-1.652 1.078l-3.852 8.919-9.753 0.875c-0.715 0.065-1.319 0.544-1.543 1.219-0.222 0.676-0.018 1.418 0.523 1.887l7.371 6.389-2.172 9.463c-0.16 0.696 0.114 1.415 0.699 1.833 0.313 0.226 0.683 0.338 1.052 0.338 0.318 0 0.636-0.084 0.921-0.252l8.407-4.97 8.407 4.97c0.617 0.364 1.392 0.331 1.973-0.086 0.585-0.417 0.859-1.137 0.699-1.833l-2.172-9.463 7.371-6.389c0.54-0.469 0.745-1.209 0.523-1.887z"></path>
<path fill="#f4c22f" style="fill: var(--color11, #f4c22f)" d="M85.245 12.091c-0.222-0.676-0.829-1.155-1.544-1.219l-9.751-0.875-3.853-8.919c-0.284-0.655-0.932-1.078-1.652-1.078s-1.368 0.423-1.651 1.078l-3.853 8.919-9.752 0.875c-0.715 0.065-1.32 0.544-1.544 1.219-0.222 0.676-0.017 1.418 0.524 1.887l7.371 6.389-2.173 9.463c-0.159 0.696 0.114 1.415 0.698 1.833 0.314 0.226 0.683 0.338 1.053 0.338 0.318 0 0.636-0.084 0.921-0.252l8.408-4.97 8.406 4.97c0.617 0.364 1.392 0.331 1.975-0.086 0.584-0.417 0.857-1.137 0.698-1.833l-2.173-9.463 7.371-6.389c0.54-0.469 0.746-1.209 0.524-1.887z"></path>
<path fill="#f4c22f" style="fill: var(--color11, #f4c22f)" d="M136.801 12.091c-0.222-0.676-0.829-1.155-1.544-1.219l-9.751-0.875-3.853-8.919c-0.284-0.655-0.932-1.078-1.652-1.078s-1.368 0.423-1.651 1.078l-3.853 8.919-9.752 0.875c-0.715 0.065-1.32 0.544-1.544 1.219-0.222 0.676-0.017 1.418 0.524 1.887l7.371 6.389-2.173 9.463c-0.159 0.696 0.114 1.415 0.698 1.833 0.314 0.226 0.683 0.338 1.053 0.338 0.318 0 0.636-0.084 0.921-0.252l8.408-4.97 8.406 4.97c0.617 0.364 1.392 0.331 1.975-0.086 0.584-0.417 0.857-1.137 0.698-1.833l-2.173-9.463 7.371-6.389c0.54-0.469 0.746-1.209 0.524-1.887z"></path>
<path fill="#f4c22f" style="fill: var(--color11, #f4c22f)" d="M188.356 12.091c-0.222-0.676-0.828-1.155-1.543-1.219l-9.751-0.875-3.853-8.919c-0.284-0.655-0.932-1.078-1.652-1.078s-1.368 0.423-1.651 1.078l-3.853 8.919-9.752 0.875c-0.715 0.065-1.32 0.544-1.544 1.219-0.222 0.676-0.017 1.418 0.524 1.887l7.371 6.389-2.173 9.463c-0.159 0.696 0.114 1.415 0.698 1.833 0.314 0.226 0.683 0.338 1.053 0.338 0.318 0 0.636-0.084 0.921-0.252l8.408-4.97 8.407 4.97c0.617 0.364 1.392 0.331 1.973-0.086 0.585-0.417 0.859-1.137 0.699-1.833l-2.172-9.463 7.371-6.389c0.54-0.469 0.745-1.209 0.523-1.887z"></path>
</symbol>
<symbol id="icon-search" viewBox="0 0 32 32">
<path fill="#8a8a8a" style="fill: var(--color8, #8a8a8a)" d="M13.82 0c2.606-0.003 5.16 0.734 7.365 2.124s3.971 3.377 5.094 5.731c1.122 2.353 1.555 4.977 1.249 7.567s-1.341 5.039-2.982 7.065l7.011 7.014c0.139 0.134 0.25 0.295 0.326 0.472s0.116 0.368 0.118 0.561c0.002 0.193-0.035 0.384-0.108 0.563s-0.181 0.341-0.317 0.477-0.299 0.245-0.477 0.317c-0.178 0.073-0.37 0.11-0.563 0.108s-0.384-0.042-0.561-0.118c-0.177-0.076-0.338-0.187-0.472-0.326l-7.011-7.014c-1.717 1.392-3.743 2.35-5.907 2.796s-4.404 0.365-6.53-0.236-4.078-1.703-5.69-3.215c-1.612-1.512-2.838-3.389-3.574-5.473s-0.962-4.315-0.658-6.505c0.304-2.19 1.13-4.274 2.406-6.079s2.968-3.276 4.931-4.29c1.963-1.014 4.141-1.543 6.351-1.54zM13.82 24.713c2.867 0.002 5.619-1.132 7.654-3.153 0.015-0.016 0.020-0.039 0.036-0.055s0.039-0.022 0.055-0.036c1.767-1.793 2.859-4.142 3.090-6.65s-0.412-5.017-1.822-7.103c-1.409-2.086-3.497-3.619-5.909-4.339s-4.998-0.582-7.319 0.391c-2.321 0.972-4.234 2.719-5.414 4.943s-1.553 4.788-1.056 7.257c0.497 2.468 1.832 4.689 3.78 6.283s4.387 2.465 6.904 2.463z"></path>
</symbol>
<symbol id="icon-share" viewBox="0 0 28 32">
<path fill="#b8b8b8" style="fill: var(--color14, #b8b8b8)" d="M22.593 21.525c-1.532 0-2.912 0.662-3.87 1.715l-8.615-5.341c0.23-0.589 0.358-1.23 0.358-1.899s-0.128-1.31-0.358-1.899l8.615-5.341c0.958 1.053 2.338 1.716 3.87 1.716 2.886 0 5.233-2.35 5.233-5.238s-2.347-5.238-5.233-5.238c-2.886 0-5.233 2.35-5.233 5.238 0 0.67 0.128 1.31 0.358 1.899l-8.615 5.341c-0.958-1.053-2.338-1.716-3.87-1.716-2.886 0-5.233 2.35-5.233 5.238s2.347 5.238 5.233 5.238c1.532 0 2.912-0.662 3.87-1.716l8.615 5.341c-0.23 0.589-0.358 1.23-0.358 1.899 0 2.888 2.347 5.238 5.233 5.238s5.233-2.35 5.233-5.238c0-2.888-2.347-5.238-5.233-5.238zM19.268 5.238c0-1.835 1.492-3.328 3.325-3.328s3.325 1.493 3.325 3.328-1.491 3.328-3.325 3.328c-1.833 0-3.325-1.493-3.325-3.328zM5.233 19.328c-1.834 0-3.325-1.493-3.325-3.328s1.492-3.328 3.325-3.328c1.833 0 3.325 1.493 3.325 3.328s-1.491 3.328-3.325 3.328zM19.268 26.762c0-1.835 1.492-3.328 3.325-3.328s3.325 1.493 3.325 3.328c0 1.835-1.491 3.328-3.325 3.328s-3.325-1.493-3.325-3.328z"></path>
</symbol>
<symbol id="icon-twitter" viewBox="0 0 32 32">
<path fill="#f4c22f" style="fill: var(--color11, #f4c22f)" d="M16 0c-8.822 0-16 7.178-16 16s7.178 16 16 16c8.822 0 16-7.178 16-16s-7.177-16-16-16zM23.138 12.338c0.007 0.159 0.011 0.318 0.011 0.478 0 4.866-3.703 10.476-10.479 10.476-2.080 0-4.016-0.608-5.645-1.653 0.288 0.034 0.581 0.052 0.878 0.052 1.726 0 3.313-0.589 4.574-1.576-1.611-0.030-2.972-1.094-3.44-2.558 0.224 0.043 0.456 0.066 0.692 0.066 0.336 0 0.662-0.044 0.971-0.128-1.685-0.338-2.954-1.826-2.954-3.611 0-0.015 0-0.032 0.001-0.046 0.496 0.275 1.064 0.441 1.667 0.46-0.987-0.659-1.638-1.787-1.638-3.064 0-0.675 0.181-1.308 0.498-1.852 1.816 2.229 4.53 3.694 7.59 3.849-0.063-0.27-0.095-0.55-0.095-0.84 0-2.033 1.649-3.683 3.682-3.683 1.059 0 2.015 0.447 2.688 1.163 0.84-0.165 1.626-0.47 2.34-0.894-0.277 0.86-0.859 1.582-1.622 2.038 0.746-0.089 1.457-0.286 2.115-0.579-0.491 0.737-1.116 1.386-1.836 1.904z"></path>
</symbol>
<symbol id="icon-user" viewBox="0 0 26 32">
<path fill="#7e7e7e" style="fill: var(--color1, #7e7e7e)" d="M22.299 16.213c-0.11-0.112-0.242-0.2-0.388-0.261s-0.302-0.092-0.46-0.092c-0.158-0-0.314 0.030-0.46 0.090s-0.278 0.148-0.389 0.259c-0.111 0.111-0.199 0.242-0.258 0.387s-0.088 0.299-0.086 0.455 0.036 0.31 0.099 0.453c0.063 0.143 0.154 0.272 0.268 0.38 1.010 0.981 1.811 2.151 2.356 3.441s0.824 2.676 0.82 4.074c0 1.437-4.172 3.524-10.711 3.524s-10.711-2.089-10.711-3.527c-0.004-1.389 0.271-2.764 0.809-4.048s1.329-2.448 2.326-3.428c0.113-0.108 0.203-0.238 0.264-0.381s0.094-0.297 0.095-0.453c0.001-0.155-0.029-0.31-0.089-0.454s-0.148-0.275-0.259-0.385c-0.111-0.11-0.244-0.197-0.39-0.256s-0.302-0.089-0.46-0.088c-0.158 0.001-0.313 0.033-0.458 0.094s-0.276 0.15-0.386 0.261c-1.219 1.197-2.186 2.622-2.844 4.19s-0.994 3.251-0.989 4.948c0 3.815 6.744 5.874 13.091 5.874s13.091-2.059 13.091-5.874c0.005-1.709-0.336-3.402-1.002-4.98s-1.646-3.007-2.881-4.206z"></path>
<path fill="#7e7e7e" style="fill: var(--color1, #7e7e7e)" d="M13.091 17.175c1.648 0 3.258-0.482 4.628-1.386s2.438-2.188 3.068-3.691 0.796-3.156 0.474-4.751c-0.321-1.595-1.115-3.061-2.28-4.211s-2.649-1.933-4.265-2.251c-1.616-0.317-3.291-0.154-4.813 0.468s-2.823 1.677-3.739 3.029c-0.915 1.352-1.404 2.942-1.404 4.569 0.003 2.18 0.881 4.271 2.443 5.812s3.679 2.409 5.888 2.412zM13.091 3.077c1.177 0 2.327 0.345 3.306 0.99s1.741 1.563 2.192 2.636 0.568 2.254 0.339 3.394c-0.23 1.139-0.796 2.186-1.628 3.008s-1.893 1.381-3.047 1.608c-1.154 0.227-2.351 0.11-3.438-0.334s-2.017-1.197-2.67-2.163-1.003-2.102-1.003-3.264c0.002-1.557 0.629-3.050 1.745-4.152s2.628-1.721 4.205-1.723z"></path>
</symbol>
<symbol id="icon-visa" viewBox="0 0 96 32">
<path fill="#8a8a8a" style="fill: var(--color8, #8a8a8a)" d="M36.45 0.563l-12.566 30.948h-8.202l-6.18-24.695c-0.38-1.523-0.706-2.077-1.846-2.724-1.869-1.043-4.942-2.021-7.656-2.63l0.19-0.898h13.196c1.683 0 3.196 1.159 3.577 3.156l3.268 17.912 8.071-21.068 8.15-0zM68.578 21.402c0.037-8.164-10.945-8.608-10.866-12.26 0.021-1.115 1.045-2.294 3.287-2.592 1.113-0.153 4.177-0.265 7.65 1.381l1.361-6.56c-1.869-0.7-4.27-1.37-7.255-1.37-7.667 0-13.064 4.209-13.109 10.231-0.050 4.453 3.851 6.938 6.793 8.421 3.021 1.518 4.032 2.486 4.021 3.847-0.020 2.077-2.41 2.985-4.641 3.026-3.901 0.063-6.163-1.088-7.971-1.956l-1.404 6.785c1.81 0.858 5.161 1.602 8.629 1.646 8.149-0 13.479-4.164 13.505-10.598zM88.824 31.511h7.176l-6.261-30.948h-6.625c-1.488 0-2.744 0.896-3.302 2.269l-11.633 28.679h8.142l1.616-4.622h9.953l0.934 4.622zM80.168 20.546l4.085-11.62 2.35 11.62h-6.435zM47.536 0.563l-6.418 30.948h-7.758l6.42-30.948h7.757z"></path>
</symbol>
</defs>
</svg>
